<svg xmlns="http://www.w3.org/2000/svg" xmlns:xlink="http://www.w3.org/1999/xlink" viewBox="0 0 40.02 43.39"><defs><style>.cls-1{fill:url(#무제_그라디언트_15);}.cls-2{fill:url(#무제_그라디언트_15-2);}.cls-3{fill:url(#무제_그라디언트_15-3);}.cls-4{fill:url(#무제_그라디언트_15-4);}.cls-5{fill:url(#무제_그라디언트_15-5);}.cls-6{fill:url(#무제_그라디언트_15-6);}</style><linearGradient id="무제_그라디언트_15" x1="20.33" y1="-6.45" x2="12.48" y2="53.61" gradientUnits="userSpaceOnUse"><stop offset="0" stop-color="#f7931e"/><stop offset="0.5" stop-color="#fc4560"/><stop offset="1" stop-color="#93278f"/></linearGradient><linearGradient id="무제_그라디언트_15-2" x1="21.06" y1="-4.63" x2="13.21" y2="55.43" xlink:href="#무제_그라디언트_15"/><linearGradient id="무제_그라디언트_15-3" x1="20.53" y1="40.87" x2="50.67" y2="41.15" xlink:href="#무제_그라디언트_15"/><linearGradient id="무제_그라디언트_15-4" x1="20.53" y1="40.84" x2="50.67" y2="41.11" xlink:href="#무제_그라디언트_15"/><linearGradient id="무제_그라디언트_15-5" x1="20.53" y1="40.79" x2="50.67" y2="41.06" xlink:href="#무제_그라디언트_15"/><linearGradient id="무제_그라디언트_15-6" x1="20.53" y1="40.75" x2="50.67" y2="41.02" xlink:href="#무제_그라디언트_15"/></defs><title>자산 1</title><g id="레이어_2" data-name="레이어 2"><g id="레이어_1-2" data-name="레이어 1"><path class="cls-1" d="M22.84,25.41,13.27,35,5.63,27.35,0,33l8.22,8.22a7.47,7.47,0,0,0,10.56,0L29.05,30.93a7.47,7.47,0,0,0,0-10.56l-8.22-8.22L15.2,17.78Z"/><path class="cls-2" d="M21,8.41,11.44,18l7.63,7.63-5.63,5.63L5.21,23a7.47,7.47,0,0,1,0-10.56L15.49,2.19A7.47,7.47,0,0,1,26,2.19l8.22,8.22L28.64,16Z"/><path class="cls-3" d="M23.87,38.51h1.48c1,0,1.69.31,1.69,1.18a1.07,1.07,0,0,1-.68,1v0a1.1,1.1,0,0,1,.94,1.14c0,1-.78,1.41-1.84,1.41h-1.6Zm1.4,2c.73,0,1-.27,1-.72s-.34-.69-1-.69h-.66v1.41Zm.12,2.2c.75,0,1.18-.27,1.18-.85s-.42-.77-1.18-.77h-.76v1.63Z"/><path class="cls-4" d="M28.22,38.51H29v4.15h2v.64H28.22Z"/><path class="cls-5" d="M31.37,40.89c0-1.54.85-2.47,2.08-2.47s2.09.92,2.09,2.47-.86,2.5-2.09,2.5S31.37,42.43,31.37,40.89Zm3.4,0c0-1.13-.52-1.81-1.32-1.81s-1.31.68-1.31,1.81.51,1.84,1.31,1.84S34.77,42,34.77,40.89Z"/><path class="cls-6" d="M36.29,40.92a2.25,2.25,0,0,1,2.23-2.5,1.91,1.91,0,0,1,1.43.61l-.41.48a1.3,1.3,0,0,0-1-.43c-.89,0-1.48.69-1.48,1.82s.53,1.84,1.52,1.84a1.19,1.19,0,0,0,.76-.23V41.37h-1v-.62H40v2.08a2.15,2.15,0,0,1-1.52.56A2.2,2.2,0,0,1,36.29,40.92Z"/></g></g></svg>